<mxfile host="app.diagrams.net" agent="Mozilla/5.0 (Windows NT 10.0; Win64; x64) AppleWebKit/537.36 (KHTML, like Gecko) Chrome/118.0.0.0 Safari/537.36" version="28.0.7">
  <diagram name="第 1 页" id="HC6xe1eyjTH8i2K5GPC8">
    <mxGraphModel dx="1295" dy="629" grid="1" gridSize="10" guides="1" tooltips="1" connect="1" arrows="1" fold="1" page="1" pageScale="1" pageWidth="827" pageHeight="1169" math="0" shadow="0">
      <root>
        <mxCell id="0" />
        <mxCell id="1" parent="0" />
        <mxCell id="-EPuHIIHdklLFLeaJbZA-1" value="" style="group" vertex="1" connectable="0" parent="1">
          <mxGeometry x="180" y="70" width="340" height="630" as="geometry" />
        </mxCell>
        <mxCell id="R3otk7VFdhm3802mE3yg-30" value="" style="rounded=0;whiteSpace=wrap;html=1;direction=south;fillColor=#F7FFFC;" parent="-EPuHIIHdklLFLeaJbZA-1" vertex="1">
          <mxGeometry width="140" height="630" as="geometry" />
        </mxCell>
        <mxCell id="R3otk7VFdhm3802mE3yg-25" style="edgeStyle=orthogonalEdgeStyle;rounded=0;orthogonalLoop=1;jettySize=auto;html=1;entryX=0.5;entryY=0;entryDx=0;entryDy=0;" parent="-EPuHIIHdklLFLeaJbZA-1" source="R3otk7VFdhm3802mE3yg-1" target="R3otk7VFdhm3802mE3yg-2" edge="1">
          <mxGeometry relative="1" as="geometry" />
        </mxCell>
        <mxCell id="R3otk7VFdhm3802mE3yg-1" value="网络" style="ellipse;shape=cloud;whiteSpace=wrap;html=1;shadow=1;fillColor=#FFFFFF;" parent="-EPuHIIHdklLFLeaJbZA-1" vertex="1">
          <mxGeometry x="10" y="30" width="120" height="80" as="geometry" />
        </mxCell>
        <mxCell id="R3otk7VFdhm3802mE3yg-22" style="edgeStyle=orthogonalEdgeStyle;rounded=0;orthogonalLoop=1;jettySize=auto;html=1;exitX=1;exitY=0.5;exitDx=0;exitDy=0;entryX=0;entryY=0.5;entryDx=0;entryDy=0;" parent="-EPuHIIHdklLFLeaJbZA-1" source="R3otk7VFdhm3802mE3yg-2" target="R3otk7VFdhm3802mE3yg-7" edge="1">
          <mxGeometry relative="1" as="geometry" />
        </mxCell>
        <mxCell id="R3otk7VFdhm3802mE3yg-2" value="负载均衡" style="shape=hexagon;perimeter=hexagonPerimeter2;whiteSpace=wrap;html=1;fixedSize=1;fillColor=#CCFFFF;shadow=1;" parent="-EPuHIIHdklLFLeaJbZA-1" vertex="1">
          <mxGeometry x="17.5" y="150" width="105" height="60" as="geometry" />
        </mxCell>
        <mxCell id="R3otk7VFdhm3802mE3yg-14" style="edgeStyle=orthogonalEdgeStyle;rounded=0;orthogonalLoop=1;jettySize=auto;html=1;" parent="-EPuHIIHdklLFLeaJbZA-1" source="R3otk7VFdhm3802mE3yg-3" target="R3otk7VFdhm3802mE3yg-8" edge="1">
          <mxGeometry relative="1" as="geometry" />
        </mxCell>
        <mxCell id="R3otk7VFdhm3802mE3yg-27" style="edgeStyle=orthogonalEdgeStyle;rounded=0;orthogonalLoop=1;jettySize=auto;html=1;" parent="-EPuHIIHdklLFLeaJbZA-1" source="R3otk7VFdhm3802mE3yg-3" edge="1">
          <mxGeometry relative="1" as="geometry">
            <mxPoint x="70" y="400" as="targetPoint" />
          </mxGeometry>
        </mxCell>
        <mxCell id="R3otk7VFdhm3802mE3yg-3" value="计算资源" style="verticalLabelPosition=bottom;verticalAlign=top;html=1;shape=mxgraph.basic.diag_snip_rect;dx=6;whiteSpace=wrap;fillColor=#CCE5FF;shadow=1;" parent="-EPuHIIHdklLFLeaJbZA-1" vertex="1">
          <mxGeometry x="20" y="270" width="100" height="60" as="geometry" />
        </mxCell>
        <mxCell id="R3otk7VFdhm3802mE3yg-28" style="edgeStyle=orthogonalEdgeStyle;rounded=0;orthogonalLoop=1;jettySize=auto;html=1;entryX=0.5;entryY=0;entryDx=0;entryDy=0;" parent="-EPuHIIHdklLFLeaJbZA-1" source="R3otk7VFdhm3802mE3yg-4" target="R3otk7VFdhm3802mE3yg-5" edge="1">
          <mxGeometry relative="1" as="geometry" />
        </mxCell>
        <mxCell id="R3otk7VFdhm3802mE3yg-4" value="存储" style="shape=datastore;whiteSpace=wrap;html=1;fillColor=#FFFFCC;shadow=1;" parent="-EPuHIIHdklLFLeaJbZA-1" vertex="1">
          <mxGeometry x="35" y="401.25" width="70" height="85" as="geometry" />
        </mxCell>
        <mxCell id="R3otk7VFdhm3802mE3yg-5" value="监控与运维" style="shape=process;whiteSpace=wrap;html=1;backgroundOutline=1;fillColor=#E6FFCC;shadow=1;" parent="-EPuHIIHdklLFLeaJbZA-1" vertex="1">
          <mxGeometry x="10" y="550" width="120" height="60" as="geometry" />
        </mxCell>
        <mxCell id="R3otk7VFdhm3802mE3yg-6" value="CDN" style="shape=cube;whiteSpace=wrap;html=1;boundedLbl=1;backgroundOutline=1;darkOpacity=0.05;darkOpacity2=0.1;fillColor=#E6E6E6;shadow=1;" parent="-EPuHIIHdklLFLeaJbZA-1" vertex="1">
          <mxGeometry x="240" y="35" width="100" height="70" as="geometry" />
        </mxCell>
        <mxCell id="R3otk7VFdhm3802mE3yg-7" value="API &lt;br&gt;Gateway" style="verticalLabelPosition=middle;verticalAlign=middle;html=1;shape=trapezoid;perimeter=trapezoidPerimeter;whiteSpace=wrap;size=0.23;arcSize=10;flipV=1;labelPosition=center;align=center;direction=east;shadow=1;fillColor=#CCFFFF;" parent="-EPuHIIHdklLFLeaJbZA-1" vertex="1">
          <mxGeometry x="240" y="147.5" width="100" height="65" as="geometry" />
        </mxCell>
        <mxCell id="R3otk7VFdhm3802mE3yg-8" value="K8s集群" style="verticalLabelPosition=bottom;verticalAlign=top;html=1;shape=mxgraph.basic.layered_rect;dx=10;outlineConnect=0;whiteSpace=wrap;fillColor=#CCE5FF;shadow=1;" parent="-EPuHIIHdklLFLeaJbZA-1" vertex="1">
          <mxGeometry x="240" y="270" width="100" height="60" as="geometry" />
        </mxCell>
        <mxCell id="R3otk7VFdhm3802mE3yg-9" value="缓存&lt;br&gt;数据库" style="shape=cylinder3;whiteSpace=wrap;html=1;boundedLbl=1;backgroundOutline=1;size=15;fillColor=#FFFFCC;shadow=1;" parent="-EPuHIIHdklLFLeaJbZA-1" vertex="1">
          <mxGeometry x="255" y="400" width="70" height="87.5" as="geometry" />
        </mxCell>
        <mxCell id="R3otk7VFdhm3802mE3yg-10" style="edgeStyle=orthogonalEdgeStyle;rounded=0;orthogonalLoop=1;jettySize=auto;html=1;entryX=-0.009;entryY=0.51;entryDx=0;entryDy=0;entryPerimeter=0;" parent="-EPuHIIHdklLFLeaJbZA-1" source="R3otk7VFdhm3802mE3yg-1" target="R3otk7VFdhm3802mE3yg-6" edge="1">
          <mxGeometry relative="1" as="geometry" />
        </mxCell>
        <mxCell id="R3otk7VFdhm3802mE3yg-11" value="BGP/Anycast" style="text;strokeColor=none;align=center;fillColor=none;html=1;verticalAlign=middle;whiteSpace=wrap;rounded=0;" parent="-EPuHIIHdklLFLeaJbZA-1" vertex="1">
          <mxGeometry x="141.75" y="50" width="81" height="20" as="geometry" />
        </mxCell>
        <mxCell id="R3otk7VFdhm3802mE3yg-13" value="动态路由" style="text;strokeColor=none;align=center;fillColor=none;html=1;verticalAlign=middle;whiteSpace=wrap;rounded=0;" parent="-EPuHIIHdklLFLeaJbZA-1" vertex="1">
          <mxGeometry x="153.5" y="150" width="57.5" height="20" as="geometry" />
        </mxCell>
        <mxCell id="R3otk7VFdhm3802mE3yg-15" value="容器化" style="text;strokeColor=none;align=center;fillColor=none;html=1;verticalAlign=middle;whiteSpace=wrap;rounded=0;" parent="-EPuHIIHdklLFLeaJbZA-1" vertex="1">
          <mxGeometry x="159.75" y="280" width="39.5" height="20" as="geometry" />
        </mxCell>
        <mxCell id="R3otk7VFdhm3802mE3yg-16" style="edgeStyle=orthogonalEdgeStyle;rounded=0;orthogonalLoop=1;jettySize=auto;html=1;entryX=0;entryY=0.5;entryDx=0;entryDy=0;entryPerimeter=0;" parent="-EPuHIIHdklLFLeaJbZA-1" source="R3otk7VFdhm3802mE3yg-4" target="R3otk7VFdhm3802mE3yg-9" edge="1">
          <mxGeometry relative="1" as="geometry" />
        </mxCell>
        <mxCell id="R3otk7VFdhm3802mE3yg-17" value="分布式" style="text;strokeColor=none;align=center;fillColor=none;html=1;verticalAlign=middle;whiteSpace=wrap;rounded=0;" parent="-EPuHIIHdklLFLeaJbZA-1" vertex="1">
          <mxGeometry x="161" y="420" width="38.25" height="20" as="geometry" />
        </mxCell>
        <mxCell id="R3otk7VFdhm3802mE3yg-19" value="Prometheus&lt;br&gt;ELK" style="whiteSpace=wrap;html=1;shape=mxgraph.basic.document;fillColor=#E6FFCC;shadow=1;" parent="-EPuHIIHdklLFLeaJbZA-1" vertex="1">
          <mxGeometry x="245" y="550" width="90" height="60" as="geometry" />
        </mxCell>
        <mxCell id="R3otk7VFdhm3802mE3yg-20" style="edgeStyle=orthogonalEdgeStyle;rounded=0;orthogonalLoop=1;jettySize=auto;html=1;entryX=0;entryY=0.5;entryDx=0;entryDy=0;entryPerimeter=0;" parent="-EPuHIIHdklLFLeaJbZA-1" source="R3otk7VFdhm3802mE3yg-5" target="R3otk7VFdhm3802mE3yg-19" edge="1">
          <mxGeometry relative="1" as="geometry" />
        </mxCell>
        <mxCell id="R3otk7VFdhm3802mE3yg-21" value="实时告警" style="text;strokeColor=none;align=center;fillColor=none;html=1;verticalAlign=middle;whiteSpace=wrap;rounded=0;" parent="-EPuHIIHdklLFLeaJbZA-1" vertex="1">
          <mxGeometry x="159.75" y="560" width="58.25" height="15" as="geometry" />
        </mxCell>
        <mxCell id="R3otk7VFdhm3802mE3yg-26" style="edgeStyle=orthogonalEdgeStyle;rounded=0;orthogonalLoop=1;jettySize=auto;html=1;exitX=0.5;exitY=1;exitDx=0;exitDy=0;entryX=0.5;entryY=0;entryDx=0;entryDy=0;entryPerimeter=0;" parent="-EPuHIIHdklLFLeaJbZA-1" source="R3otk7VFdhm3802mE3yg-2" target="R3otk7VFdhm3802mE3yg-3" edge="1">
          <mxGeometry relative="1" as="geometry" />
        </mxCell>
        <mxCell id="R3otk7VFdhm3802mE3yg-31" value="基础设施层" style="text;strokeColor=none;align=center;fillColor=none;html=1;verticalAlign=middle;whiteSpace=wrap;rounded=0;" parent="-EPuHIIHdklLFLeaJbZA-1" vertex="1">
          <mxGeometry x="35" y="10" width="70" height="20" as="geometry" />
        </mxCell>
        <mxCell id="-EPuHIIHdklLFLeaJbZA-13" value="" style="group" vertex="1" connectable="0" parent="1">
          <mxGeometry x="70" y="1230" width="540" height="110" as="geometry" />
        </mxCell>
        <mxCell id="-EPuHIIHdklLFLeaJbZA-11" value="&lt;b&gt;水平扩展&lt;/b&gt;" style="text;strokeColor=none;align=center;fillColor=none;html=1;verticalAlign=middle;whiteSpace=wrap;rounded=0;" vertex="1" parent="-EPuHIIHdklLFLeaJbZA-13">
          <mxGeometry width="60" height="25" as="geometry" />
        </mxCell>
        <mxCell id="-EPuHIIHdklLFLeaJbZA-12" value="" style="group" vertex="1" connectable="0" parent="-EPuHIIHdklLFLeaJbZA-13">
          <mxGeometry y="30" width="540" height="80" as="geometry" />
        </mxCell>
        <mxCell id="-EPuHIIHdklLFLeaJbZA-7" style="edgeStyle=orthogonalEdgeStyle;rounded=0;orthogonalLoop=1;jettySize=auto;html=1;" edge="1" parent="-EPuHIIHdklLFLeaJbZA-12" source="-EPuHIIHdklLFLeaJbZA-3" target="-EPuHIIHdklLFLeaJbZA-4">
          <mxGeometry relative="1" as="geometry" />
        </mxCell>
        <mxCell id="-EPuHIIHdklLFLeaJbZA-3" value="自动扩缩容" style="verticalLabelPosition=bottom;verticalAlign=top;html=1;shape=mxgraph.basic.donut;dx=25;fillColor=#E6FFCC;shadow=1;" vertex="1" parent="-EPuHIIHdklLFLeaJbZA-12">
          <mxGeometry y="5" width="70" height="70" as="geometry" />
        </mxCell>
        <mxCell id="-EPuHIIHdklLFLeaJbZA-8" style="edgeStyle=orthogonalEdgeStyle;rounded=0;orthogonalLoop=1;jettySize=auto;html=1;entryX=0;entryY=0.5;entryDx=0;entryDy=0;" edge="1" parent="-EPuHIIHdklLFLeaJbZA-12" source="-EPuHIIHdklLFLeaJbZA-4" target="-EPuHIIHdklLFLeaJbZA-5">
          <mxGeometry relative="1" as="geometry" />
        </mxCell>
        <mxCell id="-EPuHIIHdklLFLeaJbZA-4" value="K8s HPA" style="verticalLabelPosition=bottom;verticalAlign=top;html=1;shape=mxgraph.basic.layered_rect;dx=10;outlineConnect=0;whiteSpace=wrap;fillColor=#CCFFE6;shadow=1;" vertex="1" parent="-EPuHIIHdklLFLeaJbZA-12">
          <mxGeometry x="130" y="10" width="100" height="60" as="geometry" />
        </mxCell>
        <mxCell id="-EPuHIIHdklLFLeaJbZA-5" value="基于&lt;br&gt;QPS阈值" style="rhombus;whiteSpace=wrap;html=1;fillColor=#FFFFCC;shadow=1;" vertex="1" parent="-EPuHIIHdklLFLeaJbZA-12">
          <mxGeometry x="300" width="80" height="80" as="geometry" />
        </mxCell>
        <mxCell id="-EPuHIIHdklLFLeaJbZA-6" value="冷备节点&lt;br&gt;预热" style="shape=cube;whiteSpace=wrap;html=1;boundedLbl=1;backgroundOutline=1;darkOpacity=0.05;darkOpacity2=0.1;fillColor=#E6FFCC;shadow=1;" vertex="1" parent="-EPuHIIHdklLFLeaJbZA-12">
          <mxGeometry x="450" y="5" width="90" height="70" as="geometry" />
        </mxCell>
        <mxCell id="-EPuHIIHdklLFLeaJbZA-10" style="edgeStyle=orthogonalEdgeStyle;rounded=0;orthogonalLoop=1;jettySize=auto;html=1;entryX=0;entryY=0.5;entryDx=0;entryDy=0;entryPerimeter=0;" edge="1" parent="-EPuHIIHdklLFLeaJbZA-12" source="-EPuHIIHdklLFLeaJbZA-5" target="-EPuHIIHdklLFLeaJbZA-6">
          <mxGeometry relative="1" as="geometry" />
        </mxCell>
        <mxCell id="-EPuHIIHdklLFLeaJbZA-31" value="" style="group" vertex="1" connectable="0" parent="1">
          <mxGeometry x="44" y="780" width="740" height="110" as="geometry" />
        </mxCell>
        <mxCell id="-EPuHIIHdklLFLeaJbZA-23" value="Anycast IP" style="whiteSpace=wrap;html=1;aspect=fixed;fillColor=#CCE5FF;shadow=1;" vertex="1" parent="-EPuHIIHdklLFLeaJbZA-31">
          <mxGeometry x="160" y="30" width="80" height="80" as="geometry" />
        </mxCell>
        <mxCell id="-EPuHIIHdklLFLeaJbZA-25" style="edgeStyle=orthogonalEdgeStyle;rounded=0;orthogonalLoop=1;jettySize=auto;html=1;entryX=0;entryY=0.5;entryDx=0;entryDy=0;" edge="1" parent="-EPuHIIHdklLFLeaJbZA-31" source="-EPuHIIHdklLFLeaJbZA-16" target="-EPuHIIHdklLFLeaJbZA-23">
          <mxGeometry relative="1" as="geometry" />
        </mxCell>
        <mxCell id="-EPuHIIHdklLFLeaJbZA-16" value="智能DNS" style="strokeWidth=2;html=1;shape=mxgraph.flowchart.delay;whiteSpace=wrap;fillColor=#CCFFFF;shadow=1;direction=west;" vertex="1" parent="-EPuHIIHdklLFLeaJbZA-31">
          <mxGeometry y="40" width="100" height="60" as="geometry" />
        </mxCell>
        <mxCell id="-EPuHIIHdklLFLeaJbZA-17" value="DDoS防护" style="shape=dataStorage;whiteSpace=wrap;html=1;fixedSize=1;fillColor=#CCCCFF;shadow=1;" vertex="1" parent="-EPuHIIHdklLFLeaJbZA-31">
          <mxGeometry x="470" y="35" width="110" height="70" as="geometry" />
        </mxCell>
        <mxCell id="-EPuHIIHdklLFLeaJbZA-29" style="edgeStyle=orthogonalEdgeStyle;rounded=0;orthogonalLoop=1;jettySize=auto;html=1;entryX=0;entryY=0.5;entryDx=0;entryDy=0;" edge="1" parent="-EPuHIIHdklLFLeaJbZA-31" source="-EPuHIIHdklLFLeaJbZA-19" target="-EPuHIIHdklLFLeaJbZA-17">
          <mxGeometry relative="1" as="geometry" />
        </mxCell>
        <mxCell id="-EPuHIIHdklLFLeaJbZA-19" value="多机房&lt;br&gt;BGP路由" style="shape=cube;whiteSpace=wrap;html=1;boundedLbl=1;backgroundOutline=1;darkOpacity=0.05;darkOpacity2=0.1;fillColor=#E6E6E6;shadow=1;" vertex="1" parent="-EPuHIIHdklLFLeaJbZA-31">
          <mxGeometry x="300" y="30" width="110" height="80" as="geometry" />
        </mxCell>
        <mxCell id="-EPuHIIHdklLFLeaJbZA-22" value="&lt;b&gt;网络层&lt;/b&gt;" style="text;strokeColor=none;align=center;fillColor=none;html=1;verticalAlign=middle;whiteSpace=wrap;rounded=0;" vertex="1" parent="-EPuHIIHdklLFLeaJbZA-31">
          <mxGeometry width="46" height="20" as="geometry" />
        </mxCell>
        <mxCell id="-EPuHIIHdklLFLeaJbZA-24" value="SDN网络" style="ellipse;shape=cloud;whiteSpace=wrap;html=1;fillColor=#FFFFFF;shadow=1;" vertex="1" parent="-EPuHIIHdklLFLeaJbZA-31">
          <mxGeometry x="620" y="30" width="120" height="80" as="geometry" />
        </mxCell>
        <mxCell id="-EPuHIIHdklLFLeaJbZA-28" style="edgeStyle=orthogonalEdgeStyle;rounded=0;orthogonalLoop=1;jettySize=auto;html=1;entryX=0;entryY=0.5;entryDx=0;entryDy=0;entryPerimeter=0;" edge="1" parent="-EPuHIIHdklLFLeaJbZA-31" source="-EPuHIIHdklLFLeaJbZA-23" target="-EPuHIIHdklLFLeaJbZA-19">
          <mxGeometry relative="1" as="geometry" />
        </mxCell>
        <mxCell id="-EPuHIIHdklLFLeaJbZA-30" style="edgeStyle=orthogonalEdgeStyle;rounded=0;orthogonalLoop=1;jettySize=auto;html=1;entryX=0.083;entryY=0.5;entryDx=0;entryDy=0;entryPerimeter=0;" edge="1" parent="-EPuHIIHdklLFLeaJbZA-31" source="-EPuHIIHdklLFLeaJbZA-17" target="-EPuHIIHdklLFLeaJbZA-24">
          <mxGeometry relative="1" as="geometry" />
        </mxCell>
        <mxCell id="-EPuHIIHdklLFLeaJbZA-55" value="" style="group" vertex="1" connectable="0" parent="1">
          <mxGeometry x="60" y="980" width="680" height="110" as="geometry" />
        </mxCell>
        <mxCell id="-EPuHIIHdklLFLeaJbZA-33" value="K8s集群" style="verticalLabelPosition=bottom;verticalAlign=top;html=1;shape=mxgraph.basic.layered_rect;dx=10;outlineConnect=0;whiteSpace=wrap;fillColor=#CCFFFF;shadow=1;" vertex="1" parent="-EPuHIIHdklLFLeaJbZA-55">
          <mxGeometry x="150" y="42.5" width="100" height="60" as="geometry" />
        </mxCell>
        <mxCell id="-EPuHIIHdklLFLeaJbZA-48" style="edgeStyle=orthogonalEdgeStyle;rounded=0;orthogonalLoop=1;jettySize=auto;html=1;entryX=0;entryY=0.5;entryDx=0;entryDy=0;" edge="1" parent="-EPuHIIHdklLFLeaJbZA-55" source="-EPuHIIHdklLFLeaJbZA-34" target="-EPuHIIHdklLFLeaJbZA-35">
          <mxGeometry relative="1" as="geometry" />
        </mxCell>
        <mxCell id="-EPuHIIHdklLFLeaJbZA-34" value="自动扩缩容HPA" style="verticalLabelPosition=bottom;verticalAlign=top;html=1;shape=mxgraph.basic.donut;dx=25;fillColor=#CCFFE6;shadow=1;" vertex="1" parent="-EPuHIIHdklLFLeaJbZA-55">
          <mxGeometry x="300" y="37.5" width="70" height="70" as="geometry" />
        </mxCell>
        <mxCell id="-EPuHIIHdklLFLeaJbZA-35" value="资源隔离" style="shape=dataStorage;whiteSpace=wrap;html=1;fixedSize=1;fillColor=#CCE5FF;shadow=1;" vertex="1" parent="-EPuHIIHdklLFLeaJbZA-55">
          <mxGeometry x="420" y="37.5" width="100" height="70" as="geometry" />
        </mxCell>
        <mxCell id="-EPuHIIHdklLFLeaJbZA-36" value="Serverless&lt;br&gt;备用" style="shape=cube;whiteSpace=wrap;html=1;boundedLbl=1;backgroundOutline=1;darkOpacity=0.05;darkOpacity2=0.1;fillColor=#E6E6E6;" vertex="1" parent="-EPuHIIHdklLFLeaJbZA-55">
          <mxGeometry x="570" y="35" width="110" height="75" as="geometry" />
        </mxCell>
        <mxCell id="-EPuHIIHdklLFLeaJbZA-45" style="edgeStyle=orthogonalEdgeStyle;rounded=0;orthogonalLoop=1;jettySize=auto;html=1;" edge="1" parent="-EPuHIIHdklLFLeaJbZA-55" source="-EPuHIIHdklLFLeaJbZA-42" target="-EPuHIIHdklLFLeaJbZA-33">
          <mxGeometry relative="1" as="geometry" />
        </mxCell>
        <mxCell id="-EPuHIIHdklLFLeaJbZA-42" value="容器化" style="verticalLabelPosition=bottom;verticalAlign=top;html=1;shape=mxgraph.basic.diag_round_rect;dx=6;whiteSpace=wrap;fillColor=#E6FFCC;shadow=1;" vertex="1" parent="-EPuHIIHdklLFLeaJbZA-55">
          <mxGeometry y="45" width="100" height="55" as="geometry" />
        </mxCell>
        <mxCell id="-EPuHIIHdklLFLeaJbZA-46" style="edgeStyle=orthogonalEdgeStyle;rounded=0;orthogonalLoop=1;jettySize=auto;html=1;entryX=0;entryY=0.5;entryDx=0;entryDy=0;entryPerimeter=0;" edge="1" parent="-EPuHIIHdklLFLeaJbZA-55" source="-EPuHIIHdklLFLeaJbZA-33" target="-EPuHIIHdklLFLeaJbZA-34">
          <mxGeometry relative="1" as="geometry" />
        </mxCell>
        <mxCell id="-EPuHIIHdklLFLeaJbZA-50" style="edgeStyle=orthogonalEdgeStyle;rounded=0;orthogonalLoop=1;jettySize=auto;html=1;entryX=0;entryY=0.5;entryDx=0;entryDy=0;entryPerimeter=0;" edge="1" parent="-EPuHIIHdklLFLeaJbZA-55" source="-EPuHIIHdklLFLeaJbZA-35" target="-EPuHIIHdklLFLeaJbZA-36">
          <mxGeometry relative="1" as="geometry" />
        </mxCell>
        <mxCell id="-EPuHIIHdklLFLeaJbZA-52" value="&lt;b&gt;计算资源&lt;/b&gt;" style="text;strokeColor=none;align=center;fillColor=none;html=1;verticalAlign=middle;whiteSpace=wrap;rounded=0;" vertex="1" parent="-EPuHIIHdklLFLeaJbZA-55">
          <mxGeometry width="60" height="20" as="geometry" />
        </mxCell>
        <mxCell id="-EPuHIIHdklLFLeaJbZA-77" value="JMeter" style="shape=hexagon;perimeter=hexagonPerimeter2;whiteSpace=wrap;html=1;fixedSize=1;" vertex="1" parent="1">
          <mxGeometry x="40" y="2160" width="100" height="70" as="geometry" />
        </mxCell>
        <mxCell id="-EPuHIIHdklLFLeaJbZA-79" value="全链路压测" style="verticalLabelPosition=bottom;verticalAlign=top;html=1;shape=mxgraph.flowchart.parallel_mode;pointerEvents=1" vertex="1" parent="1">
          <mxGeometry x="210" y="2172" width="100" height="46" as="geometry" />
        </mxCell>
        <mxCell id="-EPuHIIHdklLFLeaJbZA-80" value="影子库" style="shape=tape;whiteSpace=wrap;html=1;strokeWidth=2;size=0.19" vertex="1" parent="1">
          <mxGeometry x="400" y="2162.5" width="100" height="65" as="geometry" />
        </mxCell>
        <mxCell id="-EPuHIIHdklLFLeaJbZA-81" style="edgeStyle=orthogonalEdgeStyle;rounded=0;orthogonalLoop=1;jettySize=auto;html=1;entryX=0;entryY=0.5;entryDx=0;entryDy=0;entryPerimeter=0;" edge="1" parent="1" source="-EPuHIIHdklLFLeaJbZA-77" target="-EPuHIIHdklLFLeaJbZA-79">
          <mxGeometry relative="1" as="geometry" />
        </mxCell>
        <mxCell id="-EPuHIIHdklLFLeaJbZA-82" style="edgeStyle=orthogonalEdgeStyle;rounded=0;orthogonalLoop=1;jettySize=auto;html=1;entryX=0;entryY=0.5;entryDx=0;entryDy=0;entryPerimeter=0;" edge="1" parent="1" source="-EPuHIIHdklLFLeaJbZA-79" target="-EPuHIIHdklLFLeaJbZA-80">
          <mxGeometry relative="1" as="geometry" />
        </mxCell>
        <mxCell id="-EPuHIIHdklLFLeaJbZA-128" value="" style="group" vertex="1" connectable="0" parent="1">
          <mxGeometry x="59" y="1440" width="708" height="490" as="geometry" />
        </mxCell>
        <mxCell id="-EPuHIIHdklLFLeaJbZA-127" value="&lt;span style=&quot;font-size: 12px;&quot;&gt;&lt;b&gt;监控与运维&lt;/b&gt;&lt;/span&gt;" style="text;strokeColor=none;align=center;fillColor=none;html=1;verticalAlign=middle;whiteSpace=wrap;rounded=0;" vertex="1" parent="-EPuHIIHdklLFLeaJbZA-128">
          <mxGeometry x="4" width="70" height="20" as="geometry" />
        </mxCell>
        <mxCell id="-EPuHIIHdklLFLeaJbZA-56" value="指标&lt;br&gt;监控" style="shape=internalStorage;whiteSpace=wrap;html=1;backgroundOutline=1;fillColor=#E6FFCC;shadow=1;" vertex="1" parent="-EPuHIIHdklLFLeaJbZA-128">
          <mxGeometry x="4" y="155" width="80" height="80" as="geometry" />
        </mxCell>
        <mxCell id="-EPuHIIHdklLFLeaJbZA-57" value="Prometheus" style="shape=process;whiteSpace=wrap;html=1;backgroundOutline=1;fillColor=#B3FF66;shadow=1;" vertex="1" parent="-EPuHIIHdklLFLeaJbZA-128">
          <mxGeometry x="316" y="165" width="116" height="60" as="geometry" />
        </mxCell>
        <mxCell id="-EPuHIIHdklLFLeaJbZA-58" value="Grafana" style="verticalLabelPosition=bottom;verticalAlign=top;html=1;shape=mxgraph.basic.diag_snip_rect;dx=6;whiteSpace=wrap;fillColor=#99FFCC;shadow=1;" vertex="1" parent="-EPuHIIHdklLFLeaJbZA-128">
          <mxGeometry x="159" y="45" width="100" height="60" as="geometry" />
        </mxCell>
        <mxCell id="-EPuHIIHdklLFLeaJbZA-120" style="edgeStyle=orthogonalEdgeStyle;rounded=0;orthogonalLoop=1;jettySize=auto;html=1;" edge="1" parent="-EPuHIIHdklLFLeaJbZA-128" source="-EPuHIIHdklLFLeaJbZA-59" target="-EPuHIIHdklLFLeaJbZA-60">
          <mxGeometry relative="1" as="geometry" />
        </mxCell>
        <mxCell id="-EPuHIIHdklLFLeaJbZA-59" value="Logs分析" style="whiteSpace=wrap;html=1;shape=mxgraph.basic.document;fillColor=#FFFFCC;shadow=1;" vertex="1" parent="-EPuHIIHdklLFLeaJbZA-128">
          <mxGeometry x="164" y="410" width="90" height="80" as="geometry" />
        </mxCell>
        <mxCell id="-EPuHIIHdklLFLeaJbZA-60" value="ELK" style="shape=step;perimeter=stepPerimeter;whiteSpace=wrap;html=1;fixedSize=1;fillColor=#FFFF99;shadow=1;" vertex="1" parent="-EPuHIIHdklLFLeaJbZA-128">
          <mxGeometry x="319" y="415" width="110" height="70" as="geometry" />
        </mxCell>
        <mxCell id="-EPuHIIHdklLFLeaJbZA-61" value="Traces采样" style="shape=cylinder3;whiteSpace=wrap;html=1;boundedLbl=1;backgroundOutline=1;size=15;lid=0;fillColor=#FFE6CC;shadow=1;" vertex="1" parent="-EPuHIIHdklLFLeaJbZA-128">
          <mxGeometry x="4" y="284" width="70" height="80" as="geometry" />
        </mxCell>
        <mxCell id="-EPuHIIHdklLFLeaJbZA-64" value="&lt;span style=&quot;text-wrap: nowrap;&quot;&gt;监控告警&lt;/span&gt;" style="text;strokeColor=none;align=center;fillColor=none;html=1;verticalAlign=middle;whiteSpace=wrap;rounded=0;" vertex="1" parent="-EPuHIIHdklLFLeaJbZA-128">
          <mxGeometry x="648" y="294" width="50" height="21" as="geometry" />
        </mxCell>
        <mxCell id="-EPuHIIHdklLFLeaJbZA-76" style="edgeStyle=orthogonalEdgeStyle;rounded=0;orthogonalLoop=1;jettySize=auto;html=1;entryX=0;entryY=0.5;entryDx=0;entryDy=0;" edge="1" parent="-EPuHIIHdklLFLeaJbZA-128" source="-EPuHIIHdklLFLeaJbZA-71" target="-EPuHIIHdklLFLeaJbZA-57">
          <mxGeometry relative="1" as="geometry" />
        </mxCell>
        <mxCell id="-EPuHIIHdklLFLeaJbZA-71" value="Metrics采集" style="shape=cylinder3;whiteSpace=wrap;html=1;boundedLbl=1;backgroundOutline=1;size=15;lid=0;fillColor=#CCFF99;shadow=1;" vertex="1" parent="-EPuHIIHdklLFLeaJbZA-128">
          <mxGeometry x="174" y="155" width="70" height="80" as="geometry" />
        </mxCell>
        <mxCell id="-EPuHIIHdklLFLeaJbZA-74" style="edgeStyle=orthogonalEdgeStyle;rounded=0;orthogonalLoop=1;jettySize=auto;html=1;entryX=0;entryY=0.5;entryDx=0;entryDy=0;entryPerimeter=0;" edge="1" parent="-EPuHIIHdklLFLeaJbZA-128" source="-EPuHIIHdklLFLeaJbZA-56" target="-EPuHIIHdklLFLeaJbZA-71">
          <mxGeometry relative="1" as="geometry" />
        </mxCell>
        <mxCell id="-EPuHIIHdklLFLeaJbZA-83" value="Jaeger" style="verticalLabelPosition=bottom;verticalAlign=top;html=1;shape=mxgraph.basic.diag_round_rect;dx=6;whiteSpace=wrap;fillColor=#FFCC99;shadow=1;" vertex="1" parent="-EPuHIIHdklLFLeaJbZA-128">
          <mxGeometry x="159" y="294" width="100" height="60" as="geometry" />
        </mxCell>
        <mxCell id="-EPuHIIHdklLFLeaJbZA-84" style="edgeStyle=orthogonalEdgeStyle;rounded=0;orthogonalLoop=1;jettySize=auto;html=1;entryX=0;entryY=0.5;entryDx=0;entryDy=0;entryPerimeter=0;" edge="1" parent="-EPuHIIHdklLFLeaJbZA-128" source="-EPuHIIHdklLFLeaJbZA-61" target="-EPuHIIHdklLFLeaJbZA-83">
          <mxGeometry relative="1" as="geometry" />
        </mxCell>
        <mxCell id="-EPuHIIHdklLFLeaJbZA-88" value="Dashboard" style="rounded=1;whiteSpace=wrap;html=1;absoluteArcSize=1;arcSize=14;strokeWidth=2;fillColor=#CCFFE6;shadow=1;" vertex="1" parent="-EPuHIIHdklLFLeaJbZA-128">
          <mxGeometry x="4" y="40" width="90" height="70" as="geometry" />
        </mxCell>
        <mxCell id="-EPuHIIHdklLFLeaJbZA-89" style="edgeStyle=orthogonalEdgeStyle;rounded=0;orthogonalLoop=1;jettySize=auto;html=1;entryX=0;entryY=0.5;entryDx=0;entryDy=0;entryPerimeter=0;" edge="1" parent="-EPuHIIHdklLFLeaJbZA-128" source="-EPuHIIHdklLFLeaJbZA-88" target="-EPuHIIHdklLFLeaJbZA-58">
          <mxGeometry relative="1" as="geometry" />
        </mxCell>
        <mxCell id="-EPuHIIHdklLFLeaJbZA-91" value="" style="verticalLabelPosition=bottom;verticalAlign=top;html=1;shape=mxgraph.basic.no_symbol;fillColor=#FF9999;shadow=1;" vertex="1" parent="-EPuHIIHdklLFLeaJbZA-128">
          <mxGeometry x="638" y="221.5" width="70" height="67.5" as="geometry" />
        </mxCell>
        <mxCell id="-EPuHIIHdklLFLeaJbZA-99" value="TSDB" style="shape=cylinder3;whiteSpace=wrap;html=1;boundedLbl=1;backgroundOutline=1;size=15;fillColor=#99FF33;shadow=1;" vertex="1" parent="-EPuHIIHdklLFLeaJbZA-128">
          <mxGeometry x="504" y="152.5" width="60" height="85" as="geometry" />
        </mxCell>
        <mxCell id="-EPuHIIHdklLFLeaJbZA-101" style="edgeStyle=orthogonalEdgeStyle;rounded=0;orthogonalLoop=1;jettySize=auto;html=1;entryX=0;entryY=0.5;entryDx=0;entryDy=0;entryPerimeter=0;" edge="1" parent="-EPuHIIHdklLFLeaJbZA-128" source="-EPuHIIHdklLFLeaJbZA-57" target="-EPuHIIHdklLFLeaJbZA-99">
          <mxGeometry relative="1" as="geometry" />
        </mxCell>
        <mxCell id="-EPuHIIHdklLFLeaJbZA-106" value="Filebeat" style="verticalLabelPosition=bottom;verticalAlign=top;html=1;shape=mxgraph.basic.arc;startAngle=0.3;endAngle=0.1;fillColor=#FF9999;" vertex="1" parent="-EPuHIIHdklLFLeaJbZA-128">
          <mxGeometry y="410" width="80" height="80" as="geometry" />
        </mxCell>
        <mxCell id="-EPuHIIHdklLFLeaJbZA-122" style="edgeStyle=orthogonalEdgeStyle;rounded=0;orthogonalLoop=1;jettySize=auto;html=1;entryX=0.5;entryY=1;entryDx=0;entryDy=0;" edge="1" parent="-EPuHIIHdklLFLeaJbZA-128" source="-EPuHIIHdklLFLeaJbZA-110" target="-EPuHIIHdklLFLeaJbZA-64">
          <mxGeometry relative="1" as="geometry" />
        </mxCell>
        <mxCell id="-EPuHIIHdklLFLeaJbZA-110" value="LogStorage" style="strokeWidth=2;html=1;shape=mxgraph.flowchart.stored_data;whiteSpace=wrap;fillColor=#FFFF66;shadow=1;" vertex="1" parent="-EPuHIIHdklLFLeaJbZA-128">
          <mxGeometry x="484" y="420" width="100" height="60" as="geometry" />
        </mxCell>
        <mxCell id="-EPuHIIHdklLFLeaJbZA-111" style="edgeStyle=orthogonalEdgeStyle;rounded=0;orthogonalLoop=1;jettySize=auto;html=1;exitX=1;exitY=0.5;exitDx=0;exitDy=0;entryX=0;entryY=0.5;entryDx=0;entryDy=0;entryPerimeter=0;" edge="1" parent="-EPuHIIHdklLFLeaJbZA-128" source="-EPuHIIHdklLFLeaJbZA-60" target="-EPuHIIHdklLFLeaJbZA-110">
          <mxGeometry relative="1" as="geometry" />
        </mxCell>
        <mxCell id="-EPuHIIHdklLFLeaJbZA-123" style="edgeStyle=orthogonalEdgeStyle;rounded=0;orthogonalLoop=1;jettySize=auto;html=1;entryX=0.5;entryY=1;entryDx=0;entryDy=0;" edge="1" parent="-EPuHIIHdklLFLeaJbZA-128" source="-EPuHIIHdklLFLeaJbZA-114" target="-EPuHIIHdklLFLeaJbZA-64">
          <mxGeometry relative="1" as="geometry">
            <Array as="points">
              <mxPoint x="673" y="324" />
            </Array>
          </mxGeometry>
        </mxCell>
        <mxCell id="-EPuHIIHdklLFLeaJbZA-114" value="TracingDB" style="strokeWidth=2;html=1;shape=mxgraph.flowchart.direct_data;whiteSpace=wrap;fillColor=#FFB366;shadow=1;" vertex="1" parent="-EPuHIIHdklLFLeaJbZA-128">
          <mxGeometry x="364" y="289" width="110" height="70" as="geometry" />
        </mxCell>
        <mxCell id="-EPuHIIHdklLFLeaJbZA-115" style="edgeStyle=orthogonalEdgeStyle;rounded=0;orthogonalLoop=1;jettySize=auto;html=1;entryX=0;entryY=0.5;entryDx=0;entryDy=0;entryPerimeter=0;" edge="1" parent="-EPuHIIHdklLFLeaJbZA-128" source="-EPuHIIHdklLFLeaJbZA-83" target="-EPuHIIHdklLFLeaJbZA-114">
          <mxGeometry relative="1" as="geometry" />
        </mxCell>
        <mxCell id="-EPuHIIHdklLFLeaJbZA-117" value="Span数据" style="text;strokeColor=none;align=center;fillColor=none;html=1;verticalAlign=middle;whiteSpace=wrap;rounded=0;" vertex="1" parent="-EPuHIIHdklLFLeaJbZA-128">
          <mxGeometry x="282" y="294" width="56" height="26" as="geometry" />
        </mxCell>
        <mxCell id="-EPuHIIHdklLFLeaJbZA-119" style="edgeStyle=orthogonalEdgeStyle;rounded=0;orthogonalLoop=1;jettySize=auto;html=1;entryX=0;entryY=0.5;entryDx=0;entryDy=0;entryPerimeter=0;" edge="1" parent="-EPuHIIHdklLFLeaJbZA-128" source="-EPuHIIHdklLFLeaJbZA-106" target="-EPuHIIHdklLFLeaJbZA-59">
          <mxGeometry relative="1" as="geometry" />
        </mxCell>
        <mxCell id="-EPuHIIHdklLFLeaJbZA-121" style="edgeStyle=orthogonalEdgeStyle;rounded=0;orthogonalLoop=1;jettySize=auto;html=1;entryX=0.5;entryY=0;entryDx=0;entryDy=0;entryPerimeter=0;" edge="1" parent="-EPuHIIHdklLFLeaJbZA-128" source="-EPuHIIHdklLFLeaJbZA-58" target="-EPuHIIHdklLFLeaJbZA-91">
          <mxGeometry relative="1" as="geometry" />
        </mxCell>
        <mxCell id="-EPuHIIHdklLFLeaJbZA-125" style="edgeStyle=orthogonalEdgeStyle;rounded=0;orthogonalLoop=1;jettySize=auto;html=1;entryX=0.5;entryY=0;entryDx=0;entryDy=0;entryPerimeter=0;" edge="1" parent="-EPuHIIHdklLFLeaJbZA-128" source="-EPuHIIHdklLFLeaJbZA-99" target="-EPuHIIHdklLFLeaJbZA-91">
          <mxGeometry relative="1" as="geometry" />
        </mxCell>
      </root>
    </mxGraphModel>
  </diagram>
</mxfile>
